<mxfile host="app.diagrams.net" modified="2024-02-03T23:56:33.304Z" agent="Mozilla/5.0 (Windows NT 10.0; Win64; x64) AppleWebKit/537.36 (KHTML, like Gecko) Chrome/121.0.0.0 Safari/537.36" etag="tScfleh5aFdhHyv2INc2" version="21.3.7" type="github" pages="2">
  <diagram name="Brainstorm" id="8tg0CzTJeUhset1tUZR2">
    <mxGraphModel dx="283" dy="755" grid="1" gridSize="10" guides="1" tooltips="1" connect="1" arrows="0" fold="1" page="1" pageScale="1" pageWidth="827" pageHeight="1169" math="0" shadow="0">
      <root>
        <mxCell id="0" />
        <mxCell id="1" parent="0" />
        <mxCell id="SSz-L9irg1uRTm9rv-Nn-9" style="rounded=0;orthogonalLoop=1;jettySize=auto;html=1;exitX=1;exitY=0;exitDx=0;exitDy=0;entryX=0;entryY=1;entryDx=0;entryDy=0;endArrow=none;endFill=0;shadow=0;" edge="1" parent="1" source="SSz-L9irg1uRTm9rv-Nn-1" target="SSz-L9irg1uRTm9rv-Nn-2">
          <mxGeometry relative="1" as="geometry" />
        </mxCell>
        <mxCell id="SSz-L9irg1uRTm9rv-Nn-13" style="edgeStyle=none;shape=connector;rounded=0;orthogonalLoop=1;jettySize=auto;html=1;exitX=1;exitY=1;exitDx=0;exitDy=0;entryX=0;entryY=0.5;entryDx=0;entryDy=0;shadow=0;labelBackgroundColor=default;strokeColor=default;fontFamily=Helvetica;fontSize=11;fontColor=default;endArrow=none;endFill=0;" edge="1" parent="1" source="SSz-L9irg1uRTm9rv-Nn-1" target="SSz-L9irg1uRTm9rv-Nn-12">
          <mxGeometry relative="1" as="geometry" />
        </mxCell>
        <mxCell id="SSz-L9irg1uRTm9rv-Nn-14" style="edgeStyle=none;shape=connector;rounded=0;orthogonalLoop=1;jettySize=auto;html=1;exitX=0;exitY=1;exitDx=0;exitDy=0;entryX=0.821;entryY=0.211;entryDx=0;entryDy=0;entryPerimeter=0;shadow=0;labelBackgroundColor=default;strokeColor=default;fontFamily=Helvetica;fontSize=11;fontColor=default;endArrow=none;endFill=0;" edge="1" parent="1" source="SSz-L9irg1uRTm9rv-Nn-1" target="SSz-L9irg1uRTm9rv-Nn-11">
          <mxGeometry relative="1" as="geometry" />
        </mxCell>
        <mxCell id="SSz-L9irg1uRTm9rv-Nn-21" style="edgeStyle=none;shape=connector;rounded=0;orthogonalLoop=1;jettySize=auto;html=1;exitX=0.5;exitY=0;exitDx=0;exitDy=0;entryX=0.5;entryY=1;entryDx=0;entryDy=0;shadow=0;labelBackgroundColor=default;strokeColor=default;fontFamily=Helvetica;fontSize=11;fontColor=default;endArrow=none;endFill=0;" edge="1" parent="1" source="SSz-L9irg1uRTm9rv-Nn-1" target="SSz-L9irg1uRTm9rv-Nn-19">
          <mxGeometry relative="1" as="geometry" />
        </mxCell>
        <mxCell id="SSz-L9irg1uRTm9rv-Nn-1" value="LillaGubbSpelet" style="ellipse;whiteSpace=wrap;html=1;labelBackgroundColor=none;" vertex="1" parent="1">
          <mxGeometry x="350" y="560" width="120" height="40" as="geometry" />
        </mxCell>
        <mxCell id="SSz-L9irg1uRTm9rv-Nn-17" style="edgeStyle=none;shape=connector;rounded=0;orthogonalLoop=1;jettySize=auto;html=1;exitX=1;exitY=1;exitDx=0;exitDy=0;entryX=0;entryY=0;entryDx=0;entryDy=0;shadow=0;labelBackgroundColor=default;strokeColor=default;fontFamily=Helvetica;fontSize=11;fontColor=default;endArrow=none;endFill=0;" edge="1" parent="1" source="SSz-L9irg1uRTm9rv-Nn-2" target="SSz-L9irg1uRTm9rv-Nn-16">
          <mxGeometry relative="1" as="geometry" />
        </mxCell>
        <mxCell id="SSz-L9irg1uRTm9rv-Nn-34" style="edgeStyle=none;shape=connector;rounded=0;orthogonalLoop=1;jettySize=auto;html=1;exitX=1;exitY=0;exitDx=0;exitDy=0;entryX=0;entryY=1;entryDx=0;entryDy=0;shadow=0;labelBackgroundColor=default;strokeColor=default;fontFamily=Helvetica;fontSize=11;fontColor=default;endArrow=none;endFill=0;" edge="1" parent="1" source="SSz-L9irg1uRTm9rv-Nn-2" target="SSz-L9irg1uRTm9rv-Nn-33">
          <mxGeometry relative="1" as="geometry" />
        </mxCell>
        <mxCell id="SSz-L9irg1uRTm9rv-Nn-2" value="Lilla Gubbar" style="ellipse;whiteSpace=wrap;html=1;labelBackgroundColor=none;" vertex="1" parent="1">
          <mxGeometry x="470" y="490" width="120" height="40" as="geometry" />
        </mxCell>
        <mxCell id="SSz-L9irg1uRTm9rv-Nn-11" value="Enemies?" style="ellipse;whiteSpace=wrap;html=1;fontFamily=Helvetica;fontSize=11;fontColor=default;" vertex="1" parent="1">
          <mxGeometry x="250" y="630" width="90" height="30" as="geometry" />
        </mxCell>
        <mxCell id="SSz-L9irg1uRTm9rv-Nn-18" style="edgeStyle=none;shape=connector;rounded=0;orthogonalLoop=1;jettySize=auto;html=1;exitX=1;exitY=0;exitDx=0;exitDy=0;entryX=0;entryY=1;entryDx=0;entryDy=0;shadow=0;labelBackgroundColor=default;strokeColor=default;fontFamily=Helvetica;fontSize=11;fontColor=default;endArrow=none;endFill=0;" edge="1" parent="1" source="SSz-L9irg1uRTm9rv-Nn-12" target="SSz-L9irg1uRTm9rv-Nn-16">
          <mxGeometry relative="1" as="geometry" />
        </mxCell>
        <mxCell id="SSz-L9irg1uRTm9rv-Nn-28" style="edgeStyle=none;shape=connector;rounded=0;orthogonalLoop=1;jettySize=auto;html=1;exitX=1;exitY=1;exitDx=0;exitDy=0;entryX=0.5;entryY=0;entryDx=0;entryDy=0;shadow=0;labelBackgroundColor=default;strokeColor=default;fontFamily=Helvetica;fontSize=11;fontColor=default;endArrow=none;endFill=0;" edge="1" parent="1" source="SSz-L9irg1uRTm9rv-Nn-12" target="SSz-L9irg1uRTm9rv-Nn-27">
          <mxGeometry relative="1" as="geometry" />
        </mxCell>
        <mxCell id="SSz-L9irg1uRTm9rv-Nn-30" style="edgeStyle=none;shape=connector;rounded=0;orthogonalLoop=1;jettySize=auto;html=1;exitX=0.5;exitY=1;exitDx=0;exitDy=0;entryX=0.5;entryY=0;entryDx=0;entryDy=0;shadow=0;labelBackgroundColor=default;strokeColor=default;fontFamily=Helvetica;fontSize=11;fontColor=default;endArrow=none;endFill=0;" edge="1" parent="1" source="SSz-L9irg1uRTm9rv-Nn-12" target="SSz-L9irg1uRTm9rv-Nn-29">
          <mxGeometry relative="1" as="geometry" />
        </mxCell>
        <mxCell id="SSz-L9irg1uRTm9rv-Nn-32" style="edgeStyle=none;shape=connector;rounded=0;orthogonalLoop=1;jettySize=auto;html=1;exitX=0;exitY=1;exitDx=0;exitDy=0;entryX=0.5;entryY=0;entryDx=0;entryDy=0;shadow=0;labelBackgroundColor=default;strokeColor=default;fontFamily=Helvetica;fontSize=11;fontColor=default;endArrow=none;endFill=0;" edge="1" parent="1" source="SSz-L9irg1uRTm9rv-Nn-12" target="SSz-L9irg1uRTm9rv-Nn-31">
          <mxGeometry relative="1" as="geometry" />
        </mxCell>
        <mxCell id="SSz-L9irg1uRTm9rv-Nn-40" style="edgeStyle=none;shape=connector;rounded=0;orthogonalLoop=1;jettySize=auto;html=1;exitX=1;exitY=0.5;exitDx=0;exitDy=0;entryX=0;entryY=0.5;entryDx=0;entryDy=0;shadow=0;labelBackgroundColor=default;strokeColor=default;fontFamily=Helvetica;fontSize=11;fontColor=default;endArrow=none;endFill=0;" edge="1" parent="1" source="SSz-L9irg1uRTm9rv-Nn-12" target="SSz-L9irg1uRTm9rv-Nn-39">
          <mxGeometry relative="1" as="geometry" />
        </mxCell>
        <mxCell id="SSz-L9irg1uRTm9rv-Nn-12" value="Resources" style="ellipse;whiteSpace=wrap;html=1;fontFamily=Helvetica;fontSize=11;fontColor=default;" vertex="1" parent="1">
          <mxGeometry x="510" y="620" width="80" height="30" as="geometry" />
        </mxCell>
        <mxCell id="SSz-L9irg1uRTm9rv-Nn-36" style="edgeStyle=none;shape=connector;rounded=0;orthogonalLoop=1;jettySize=auto;html=1;exitX=1;exitY=0;exitDx=0;exitDy=0;entryX=0;entryY=1;entryDx=0;entryDy=0;shadow=0;labelBackgroundColor=default;strokeColor=default;fontFamily=Helvetica;fontSize=11;fontColor=default;endArrow=none;endFill=0;" edge="1" parent="1" source="SSz-L9irg1uRTm9rv-Nn-16" target="SSz-L9irg1uRTm9rv-Nn-35">
          <mxGeometry relative="1" as="geometry" />
        </mxCell>
        <mxCell id="SSz-L9irg1uRTm9rv-Nn-16" value="Gathering" style="ellipse;whiteSpace=wrap;html=1;fontFamily=Helvetica;fontSize=11;fontColor=default;" vertex="1" parent="1">
          <mxGeometry x="600" y="560" width="80" height="30" as="geometry" />
        </mxCell>
        <mxCell id="SSz-L9irg1uRTm9rv-Nn-25" style="edgeStyle=none;shape=connector;rounded=0;orthogonalLoop=1;jettySize=auto;html=1;exitX=1;exitY=0.5;exitDx=0;exitDy=0;entryX=0;entryY=0;entryDx=0;entryDy=0;shadow=0;labelBackgroundColor=default;strokeColor=default;fontFamily=Helvetica;fontSize=11;fontColor=default;endArrow=none;endFill=0;" edge="1" parent="1" source="SSz-L9irg1uRTm9rv-Nn-19" target="SSz-L9irg1uRTm9rv-Nn-24">
          <mxGeometry relative="1" as="geometry" />
        </mxCell>
        <mxCell id="SSz-L9irg1uRTm9rv-Nn-19" value="The Player" style="ellipse;whiteSpace=wrap;html=1;fontFamily=Helvetica;fontSize=11;fontColor=default;" vertex="1" parent="1">
          <mxGeometry x="334" y="430" width="80" height="30" as="geometry" />
        </mxCell>
        <mxCell id="SSz-L9irg1uRTm9rv-Nn-26" style="edgeStyle=none;shape=connector;rounded=0;orthogonalLoop=1;jettySize=auto;html=1;exitX=1;exitY=1;exitDx=0;exitDy=0;entryX=0.5;entryY=0;entryDx=0;entryDy=0;shadow=0;labelBackgroundColor=default;strokeColor=default;fontFamily=Helvetica;fontSize=11;fontColor=default;endArrow=none;endFill=0;" edge="1" parent="1" source="SSz-L9irg1uRTm9rv-Nn-24" target="SSz-L9irg1uRTm9rv-Nn-2">
          <mxGeometry relative="1" as="geometry" />
        </mxCell>
        <mxCell id="SSz-L9irg1uRTm9rv-Nn-24" value="Assigns" style="rhombus;whiteSpace=wrap;html=1;fontFamily=Helvetica;fontSize=11;fontColor=default;" vertex="1" parent="1">
          <mxGeometry x="440" y="440" width="70" height="40" as="geometry" />
        </mxCell>
        <mxCell id="SSz-L9irg1uRTm9rv-Nn-27" value="Wood" style="ellipse;whiteSpace=wrap;html=1;fontFamily=Helvetica;fontSize=11;fontColor=default;" vertex="1" parent="1">
          <mxGeometry x="590" y="680" width="50" height="30" as="geometry" />
        </mxCell>
        <mxCell id="SSz-L9irg1uRTm9rv-Nn-29" value="Stone" style="ellipse;whiteSpace=wrap;html=1;fontFamily=Helvetica;fontSize=11;fontColor=default;" vertex="1" parent="1">
          <mxGeometry x="525" y="690" width="50" height="30" as="geometry" />
        </mxCell>
        <mxCell id="SSz-L9irg1uRTm9rv-Nn-31" value="Metal" style="ellipse;whiteSpace=wrap;html=1;fontFamily=Helvetica;fontSize=11;fontColor=default;" vertex="1" parent="1">
          <mxGeometry x="460" y="680" width="50" height="30" as="geometry" />
        </mxCell>
        <mxCell id="SSz-L9irg1uRTm9rv-Nn-33" value="Need houses" style="ellipse;whiteSpace=wrap;html=1;fontFamily=Helvetica;fontSize=11;fontColor=default;" vertex="1" parent="1">
          <mxGeometry x="570" y="420" width="80" height="30" as="geometry" />
        </mxCell>
        <mxCell id="SSz-L9irg1uRTm9rv-Nn-35" value="Tools increase productivity" style="ellipse;whiteSpace=wrap;html=1;fontFamily=Helvetica;fontSize=11;fontColor=default;" vertex="1" parent="1">
          <mxGeometry x="680" y="510" width="90" height="40" as="geometry" />
        </mxCell>
        <mxCell id="SSz-L9irg1uRTm9rv-Nn-45" style="edgeStyle=none;shape=connector;rounded=0;orthogonalLoop=1;jettySize=auto;html=1;exitX=1;exitY=1;exitDx=0;exitDy=0;entryX=0.5;entryY=0;entryDx=0;entryDy=0;shadow=0;labelBackgroundColor=default;strokeColor=default;fontFamily=Helvetica;fontSize=11;fontColor=default;endArrow=none;endFill=0;" edge="1" parent="1" source="SSz-L9irg1uRTm9rv-Nn-39" target="SSz-L9irg1uRTm9rv-Nn-44">
          <mxGeometry relative="1" as="geometry" />
        </mxCell>
        <mxCell id="SSz-L9irg1uRTm9rv-Nn-46" style="edgeStyle=none;shape=connector;rounded=0;orthogonalLoop=1;jettySize=auto;html=1;exitX=0.5;exitY=1;exitDx=0;exitDy=0;entryX=0.5;entryY=0;entryDx=0;entryDy=0;shadow=0;labelBackgroundColor=default;strokeColor=default;fontFamily=Helvetica;fontSize=11;fontColor=default;endArrow=none;endFill=0;" edge="1" parent="1" source="SSz-L9irg1uRTm9rv-Nn-39" target="SSz-L9irg1uRTm9rv-Nn-41">
          <mxGeometry relative="1" as="geometry" />
        </mxCell>
        <mxCell id="SSz-L9irg1uRTm9rv-Nn-47" style="edgeStyle=none;shape=connector;rounded=0;orthogonalLoop=1;jettySize=auto;html=1;exitX=0;exitY=1;exitDx=0;exitDy=0;entryX=0.5;entryY=0;entryDx=0;entryDy=0;shadow=0;labelBackgroundColor=default;strokeColor=default;fontFamily=Helvetica;fontSize=11;fontColor=default;endArrow=none;endFill=0;" edge="1" parent="1" source="SSz-L9irg1uRTm9rv-Nn-39" target="SSz-L9irg1uRTm9rv-Nn-43">
          <mxGeometry relative="1" as="geometry" />
        </mxCell>
        <mxCell id="SSz-L9irg1uRTm9rv-Nn-39" value="Spent on" style="rhombus;whiteSpace=wrap;html=1;fontFamily=Helvetica;fontSize=11;fontColor=default;" vertex="1" parent="1">
          <mxGeometry x="695" y="620" width="60" height="40" as="geometry" />
        </mxCell>
        <mxCell id="SSz-L9irg1uRTm9rv-Nn-41" value="Additional Gubbar" style="ellipse;whiteSpace=wrap;html=1;fontFamily=Helvetica;fontSize=11;fontColor=default;" vertex="1" parent="1">
          <mxGeometry x="690" y="710" width="70" height="40" as="geometry" />
        </mxCell>
        <mxCell id="SSz-L9irg1uRTm9rv-Nn-43" value="Tools" style="ellipse;whiteSpace=wrap;html=1;fontFamily=Helvetica;fontSize=11;fontColor=default;" vertex="1" parent="1">
          <mxGeometry x="645" y="680" width="50" height="30" as="geometry" />
        </mxCell>
        <mxCell id="SSz-L9irg1uRTm9rv-Nn-44" value="Buildings" style="ellipse;whiteSpace=wrap;html=1;fontFamily=Helvetica;fontSize=11;fontColor=default;" vertex="1" parent="1">
          <mxGeometry x="770" y="680" width="60" height="30" as="geometry" />
        </mxCell>
      </root>
    </mxGraphModel>
  </diagram>
  <diagram id="fLV8qfSmlpDGLDGAu6I3" name="UML Kinda">
    <mxGraphModel dx="988" dy="527" grid="1" gridSize="10" guides="1" tooltips="1" connect="1" arrows="1" fold="1" page="1" pageScale="1" pageWidth="827" pageHeight="1169" math="0" shadow="0">
      <root>
        <mxCell id="0" />
        <mxCell id="1" parent="0" />
        <mxCell id="t5h45SGktJepGJIgRCKU-1" value="Gubbe" style="swimlane;fontStyle=1;align=center;verticalAlign=top;childLayout=stackLayout;horizontal=1;startSize=20;horizontalStack=0;resizeParent=1;resizeParentMax=0;resizeLast=0;collapsible=1;marginBottom=0;whiteSpace=wrap;html=1;fontFamily=Helvetica;fontSize=11;fontColor=default;" vertex="1" parent="1">
          <mxGeometry x="330" y="520" width="160" height="150" as="geometry">
            <mxRectangle x="330" y="520" width="80" height="30" as="alternateBounds" />
          </mxGeometry>
        </mxCell>
        <mxCell id="t5h45SGktJepGJIgRCKU-2" value="- _assignedTo: Station&lt;br&gt;- _speed&lt;br&gt;- _workSpeed&lt;br&gt;- _maxWeight&lt;br&gt;- _" style="text;strokeColor=none;fillColor=none;align=left;verticalAlign=top;spacingLeft=4;spacingRight=4;overflow=hidden;rotatable=0;points=[[0,0.5],[1,0.5]];portConstraint=eastwest;whiteSpace=wrap;html=1;fontSize=11;fontFamily=Helvetica;fontColor=default;" vertex="1" parent="t5h45SGktJepGJIgRCKU-1">
          <mxGeometry y="20" width="160" height="80" as="geometry" />
        </mxCell>
        <mxCell id="t5h45SGktJepGJIgRCKU-3" value="" style="line;strokeWidth=1;fillColor=none;align=left;verticalAlign=middle;spacingTop=-1;spacingLeft=3;spacingRight=3;rotatable=0;labelPosition=right;points=[];portConstraint=eastwest;strokeColor=inherit;fontFamily=Helvetica;fontSize=11;fontColor=default;" vertex="1" parent="t5h45SGktJepGJIgRCKU-1">
          <mxGeometry y="100" width="160" height="8" as="geometry" />
        </mxCell>
        <mxCell id="t5h45SGktJepGJIgRCKU-4" value="+ SetStation(Station): bool" style="text;strokeColor=none;fillColor=none;align=left;verticalAlign=top;spacingLeft=4;spacingRight=4;overflow=hidden;rotatable=0;points=[[0,0.5],[1,0.5]];portConstraint=eastwest;whiteSpace=wrap;html=1;fontSize=11;fontFamily=Helvetica;fontColor=default;" vertex="1" parent="t5h45SGktJepGJIgRCKU-1">
          <mxGeometry y="108" width="160" height="42" as="geometry" />
        </mxCell>
        <mxCell id="t5h45SGktJepGJIgRCKU-5" value="&lt;p style=&quot;margin:0px;margin-top:4px;text-align:center;&quot;&gt;&lt;i&gt;&amp;lt;&amp;lt;Interface&amp;gt;&amp;gt;&lt;/i&gt;&lt;br&gt;&lt;b&gt;Tool&lt;/b&gt;&lt;/p&gt;&lt;hr size=&quot;1&quot;&gt;&lt;p style=&quot;margin:0px;margin-left:4px;&quot;&gt;- _productionMultiplier: double&lt;br&gt;- _applicableStation: Station&lt;/p&gt;&lt;p style=&quot;margin:0px;margin-left:4px;&quot;&gt;- _durability&lt;/p&gt;&lt;hr size=&quot;1&quot;&gt;&lt;p style=&quot;margin:0px;margin-left:4px;&quot;&gt;+ method1(Type): Type&lt;br&gt;+ method2(Type, Type): Type&lt;/p&gt;" style="verticalAlign=top;align=left;overflow=fill;fontSize=12;fontFamily=Helvetica;html=1;whiteSpace=wrap;fontColor=default;" vertex="1" parent="1">
          <mxGeometry x="520" y="493" width="190" height="140" as="geometry" />
        </mxCell>
        <mxCell id="fQIMANSboPC5frEYKlIF-1" value="&lt;p style=&quot;margin:0px;margin-top:4px;text-align:center;&quot;&gt;&lt;i&gt;&amp;lt;&amp;lt;Interface&amp;gt;&amp;gt;&lt;/i&gt;&lt;br&gt;&lt;b&gt;Station&lt;/b&gt;&lt;/p&gt;&lt;hr size=&quot;1&quot;&gt;&lt;p style=&quot;margin:0px;margin-left:4px;&quot;&gt;+ field1: Type&lt;br&gt;+ field2: Type&lt;/p&gt;&lt;hr size=&quot;1&quot;&gt;&lt;p style=&quot;margin:0px;margin-left:4px;&quot;&gt;+ method1(Type): Type&lt;br&gt;+ method2(Type, Type): Type&lt;/p&gt;" style="verticalAlign=top;align=left;overflow=fill;fontSize=12;fontFamily=Helvetica;html=1;whiteSpace=wrap;fontColor=default;" vertex="1" parent="1">
          <mxGeometry x="100" y="490" width="190" height="140" as="geometry" />
        </mxCell>
        <mxCell id="fQIMANSboPC5frEYKlIF-2" value="LoggingStation" style="swimlane;fontStyle=1;align=center;verticalAlign=top;childLayout=stackLayout;horizontal=1;startSize=26;horizontalStack=0;resizeParent=1;resizeParentMax=0;resizeLast=0;collapsible=1;marginBottom=0;whiteSpace=wrap;html=1;fontFamily=Helvetica;fontSize=11;fontColor=default;" vertex="1" parent="1">
          <mxGeometry x="140" y="340" width="160" height="86" as="geometry" />
        </mxCell>
        <mxCell id="fQIMANSboPC5frEYKlIF-3" value="+ field: type" style="text;strokeColor=none;fillColor=none;align=left;verticalAlign=top;spacingLeft=4;spacingRight=4;overflow=hidden;rotatable=0;points=[[0,0.5],[1,0.5]];portConstraint=eastwest;whiteSpace=wrap;html=1;fontSize=11;fontFamily=Helvetica;fontColor=default;" vertex="1" parent="fQIMANSboPC5frEYKlIF-2">
          <mxGeometry y="26" width="160" height="26" as="geometry" />
        </mxCell>
        <mxCell id="fQIMANSboPC5frEYKlIF-4" value="" style="line;strokeWidth=1;fillColor=none;align=left;verticalAlign=middle;spacingTop=-1;spacingLeft=3;spacingRight=3;rotatable=0;labelPosition=right;points=[];portConstraint=eastwest;strokeColor=inherit;fontFamily=Helvetica;fontSize=11;fontColor=default;" vertex="1" parent="fQIMANSboPC5frEYKlIF-2">
          <mxGeometry y="52" width="160" height="8" as="geometry" />
        </mxCell>
        <mxCell id="fQIMANSboPC5frEYKlIF-5" value="+ method(type): type" style="text;strokeColor=none;fillColor=none;align=left;verticalAlign=top;spacingLeft=4;spacingRight=4;overflow=hidden;rotatable=0;points=[[0,0.5],[1,0.5]];portConstraint=eastwest;whiteSpace=wrap;html=1;fontSize=11;fontFamily=Helvetica;fontColor=default;" vertex="1" parent="fQIMANSboPC5frEYKlIF-2">
          <mxGeometry y="60" width="160" height="26" as="geometry" />
        </mxCell>
      </root>
    </mxGraphModel>
  </diagram>
</mxfile>
